<svg xmlns="http://www.w3.org/2000/svg" viewBox="0 0 512 512" role="img" aria-label="BAUMA B Mark">
  <g fill="currentColor" transform="translate(46.079999999999984,46.079999999999984) scale(5.56816976127321)">
    <path d="M0,0h30.2c15.3,0,27.5,3.7,27.5,18.9c0,6.8-3.2,12.5-8.6,15.7c6.9,2.7,11.5,8,11.5,17
    c0,16.2-11.9,22.5-28.7,22.5H0V0z M31.2,30.3c6.9,0,11.1-3.1,11.1-9.1c0-5.7-4.3-8.7-11.1-8.7H14.9v17.8H31.2z M32.2,61.5
    c8.6,0,12.9-3.7,12.9-10c0-6.5-4.3-9.9-13.1-9.9H14.9v19.9H32.2z"/>
  </g>
</svg>