<svg xmlns="http://www.w3.org/2000/svg" viewBox="0 0 385.7 75.4" role="img" aria-label="BAUMA">
  <g fill="currentColor">
    <path d="M0,0h30.2c15.3,0,27.5,3.7,27.5,18.9c0,6.8-3.2,12.5-8.6,15.7c6.9,2.7,11.5,8,11.5,17c0,16.2-11.9,22.5-28.7,22.5H0V0z M31.2,30.3c6.9,0,11.1-3.1,11.1-9.1c0-5.7-4.3-8.7-11.1-8.7H14.9v17.8H31.2z M32.2,61.5c8.6,0,12.9-3.7,12.9-10c0-6.5-4.3-9.9-13.1-9.9H14.9v19.9H32.2z"></path>
    <path d="M92.8,0h16.6l28,74.1h-16.1l-4.9-14.2H85.5l-4.9,14.2H65L92.8,0z M112,47.6l-11.1-32l-11,32H112z"></path>
    <path d="M206.6,42.3c0,22.4-8.6,33.1-31.2,33.1c-21.6,0-31.2-8.5-31.2-32.4V0h14.9v44.5c0,12.2,3.5,18.5,16.2,18.5c13,0,16.2-7.3,16.2-19.5V0h14.9V42.3z"></path>
    <path d="M223.7,0h23.9l15.8,56.3L279.6,0h23.7v74.1h-14.6V12.8l-17.9,61.3h-14.5l-18.1-61.2v61.2h-14.5V0z"></path>
    <path d="M341.1,0h16.6l28,74.1h-16.1l-4.9-14.2h-30.8L329,74.1h-15.6L341.1,0z M360.3,47.6l-11.1-32l-11,32H360.3z"></path>
  </g>
</svg>